<svg xmlns="http://www.w3.org/2000/svg" version="1.1" xmlns:xlink="http://www.w3.org/1999/xlink" xmlns:svgjs="http://svgjs.dev/svgjs" width="1440" height="560" preserveAspectRatio="none" viewBox="0 0 1440 560"><g mask="url(&quot;#SvgjsMask2702&quot;)" fill="none"><rect width="1440" height="560" x="0" y="0" fill="url(&quot;#SvgjsLinearGradient2703&quot;)"></rect><path d="M180.24 553.06 a105.25 105.25 0 1 0 210.5 0 a105.25 105.25 0 1 0 -210.5 0z" fill="rgba(197, 161, 17, 0.4)" class="triangle-float1"></path><path d="M764.4 257.17 a113.42 113.42 0 1 0 226.84 0 a113.42 113.42 0 1 0 -226.84 0z" fill="rgba(197, 161, 17, 0.4)" class="triangle-float3"></path><path d="M1286.295,321.074C1324.169,321.247,1357.173,298.072,1376.61,265.566C1396.632,232.083,1403.712,190.677,1384.609,156.661C1365.16,122.027,1326.012,104.203,1286.295,104.741C1247.536,105.266,1211.315,125.379,1192.489,159.264C1174.167,192.242,1178.478,232.109,1197.399,264.747C1216.256,297.274,1248.697,320.902,1286.295,321.074" fill="rgba(197, 161, 17, 0.4)" class="triangle-float1"></path><path d="M1389.08,530.626C1414.75,531.527,1435.082,511.599,1447.97,489.38C1460.912,467.068,1467.712,439.767,1454.699,417.496C1441.776,395.379,1414.643,386.955,1389.08,388.597C1366.293,390.061,1347.424,404.975,1336.603,425.082C1326.377,444.084,1327.335,466.16,1336.942,485.482C1347.912,507.544,1364.456,529.761,1389.08,530.626" fill="rgba(197, 161, 17, 0.4)" class="triangle-float1"></path><path d="M362.291,340.694C393.447,342.313,421.745,322.906,437.192,295.801C452.487,268.962,453.389,235.616,437.151,209.337C421.652,184.253,391.771,175.199,362.291,174.585C331.425,173.942,296.669,179.03,281.829,206.102C267.321,232.569,284.271,262.753,299.759,288.66C314.672,313.606,333.266,339.186,362.291,340.694" fill="rgba(197, 161, 17, 0.4)" class="triangle-float3"></path><path d="M954.61 37.78 a133.04 133.04 0 1 0 266.08 0 a133.04 133.04 0 1 0 -266.08 0z" fill="rgba(197, 161, 17, 0.4)" class="triangle-float2"></path><path d="M17.6 70.31 a175.31 175.31 0 1 0 350.62 0 a175.31 175.31 0 1 0 -350.62 0z" fill="rgba(197, 161, 17, 0.4)" class="triangle-float2"></path><path d="M595.106,605.505C629.117,604.992,658.678,583.919,675.358,554.275C691.702,525.229,692.811,490.013,676.419,460.995C659.756,431.497,628.964,410.999,595.106,412.205C562.958,413.35,539.481,438.682,523.239,466.449C506.788,494.573,495.59,527.815,510.549,556.76C526.558,587.737,560.241,606.031,595.106,605.505" fill="rgba(197, 161, 17, 0.4)" class="triangle-float2"></path><path d="M1006.964,204.201C1038.483,202.382,1062.18,178.714,1077.679,151.209C1092.834,124.314,1099.511,92.558,1085.327,65.139C1070.013,35.535,1040.257,16.101,1006.964,14.509C970.638,12.772,932.993,25.683,914.446,56.966C895.589,88.771,900.865,128.973,920.538,160.28C938.966,189.607,972.386,206.197,1006.964,204.201" fill="rgba(197, 161, 17, 0.4)" class="triangle-float2"></path><path d="M1003.516,517.313C1045.906,517.302,1075.844,478.84,1093.96,440.516C1109.359,407.939,1105.206,371.194,1087.394,339.871C1069.344,308.128,1039.933,284.155,1003.516,281.463C961.772,278.377,915.707,289.269,895.006,325.65C874.455,361.768,892.514,404.403,912.987,440.565C933.877,477.464,961.114,517.324,1003.516,517.313" fill="rgba(197, 161, 17, 0.4)" class="triangle-float2"></path><path d="M-85.27 379.35 a172.6 172.6 0 1 0 345.2 0 a172.6 172.6 0 1 0 -345.2 0z" fill="rgba(197, 161, 17, 0.4)" class="triangle-float3"></path><path d="M1147.29 490.83 a149.69 149.69 0 1 0 299.38 0 a149.69 149.69 0 1 0 -299.38 0z" fill="rgba(197, 161, 17, 0.4)" class="triangle-float3"></path><path d="M877.58 404.63 a154.11 154.11 0 1 0 308.22 0 a154.11 154.11 0 1 0 -308.22 0z" fill="rgba(197, 161, 17, 0.4)" class="triangle-float3"></path><path d="M539.584,284.968C583.15,285.696,623.113,263.081,646.521,226.33C671.957,186.395,685.83,134.799,660.849,94.577C636.754,55.783,585.182,51.62,539.584,54.154C499.268,56.394,460.339,72.219,439.61,106.87C418.336,142.432,418.375,186.722,438.66,222.858C459.384,259.776,497.253,284.261,539.584,284.968" fill="rgba(197, 161, 17, 0.4)" class="triangle-float3"></path><path d="M654.88 272.33 a103.36 103.36 0 1 0 206.72 0 a103.36 103.36 0 1 0 -206.72 0z" fill="rgba(197, 161, 17, 0.4)" class="triangle-float3"></path></g><defs><mask id="SvgjsMask2702"><rect width="1440" height="560" fill="#ffffff"></rect></mask><linearGradient x1="50%" y1="100%" x2="50%" y2="0%" gradientUnits="userSpaceOnUse" id="SvgjsLinearGradient2703"><stop stop-color="rgba(81, 83, 94, 1)" offset="0.27"></stop><stop stop-color="rgba(179, 168, 57, 1)" offset="1"></stop></linearGradient><style>
                @keyframes float1 {
                    0%{transform: translate(0, 0)}
                    50%{transform: translate(-10px, 0)}
                    100%{transform: translate(0, 0)}
                }

                .triangle-float1 {
                    animation: float1 5s infinite;
                }

                @keyframes float2 {
                    0%{transform: translate(0, 0)}
                    50%{transform: translate(-5px, -5px)}
                    100%{transform: translate(0, 0)}
                }

                .triangle-float2 {
                    animation: float2 4s infinite;
                }

                @keyframes float3 {
                    0%{transform: translate(0, 0)}
                    50%{transform: translate(0, -10px)}
                    100%{transform: translate(0, 0)}
                }

                .triangle-float3 {
                    animation: float3 6s infinite;
                }
            </style></defs></svg>