<svg xmlns="http://www.w3.org/2000/svg" version="1.1" xmlns:xlink="http://www.w3.org/1999/xlink" xmlns:svgjs="http://svgjs.dev/svgjs" width="1184" height="300" preserveAspectRatio="none" viewBox="0 0 1184 300"><g mask="url(&quot;#SvgjsMask1098&quot;)" fill="none"><rect width="1184" height="300" x="0" y="0" fill="rgba(197, 161, 17, 0.4)"></rect><path d="M1184.0000000000002 300L0 300 L0 96.43Q35.39 33.16, 98.66666666666667 68.55Q179.63 50.85, 197.33333333333334 131.82Q217.47 92.75, 256.53333333333336 112.89Q301.64 98.8, 315.73333333333335 143.9Q344.03 73.53, 414.40000000000003 101.83Q428.74 56.97, 473.6 71.31Q508.6 47.11, 532.8000000000001 82.11Q587.37 77.48, 592.0000000000001 132.05Q613.83 94.67, 651.2000000000002 116.5Q661.74 67.84, 710.4000000000002 78.38Q753.07 22.39, 809.0666666666668 65.06Q885.7 43.03, 907.7333333333335 119.66Q927.18 79.91, 966.9333333333335 99.36Q1009.14 42.9, 1065.6000000000001 85.1Q1090.12 50.42, 1124.8000000000002 74.94Q1165.9 56.84, 1184.0000000000002 97.94z" fill="rgba(80, 66, 8, 0.4)"></path><path d="M1203.7333333333333 300L0 300 L0 146.2Q40.76 88.3, 98.66666666666667 129.06Q169.63 101.36, 197.33333333333334 172.32Q211.76 127.54, 256.53333333333336 141.97Q314.75 101.52, 355.20000000000005 159.74Q391.55 136.89, 414.40000000000003 173.24Q429.3 128.94, 473.6 143.83Q510.31 121.34, 532.8000000000001 158.06Q595.81 122.41, 631.4666666666667 185.42Q659.94 115.23, 730.1333333333333 143.71Q753.71 108.09, 789.3333333333334 131.67Q857.53 101.2, 888 169.4Q929.36 112.1, 986.6666666666666 153.46Q1052.18 120.31, 1085.3333333333333 185.82Q1093.45 134.74, 1144.5333333333333 142.86Q1167.66 106.79, 1203.7333333333333 129.91z" fill="rgba(16, 61, 75, 0.4)"></path><path d="M1282.6666666666667 300L0 300 L0 228.03Q57.42 186.79, 98.66666666666667 244.21Q125.7 172.58, 197.33333333333334 199.61Q262.49 166.1, 296 231.25Q341.69 217.73, 355.2 263.42Q356.35 205.37, 414.4 206.52Q451.01 144.47, 513.0666666666666 181.08Q561.51 170.32, 572.2666666666667 218.77Q608.16 156, 670.9333333333333 191.9Q705.17 166.94, 730.1333333333333 201.18Q796.23 168.61, 828.8 234.71Q852.42 159.67, 927.4666666666666 183.29Q963.7 160.32, 986.6666666666666 196.55Q1060.7 171.92, 1085.3333333333333 245.96Q1123.19 185.15, 1184 223.01Q1226.35 166.69, 1282.6666666666667 209.04z" fill="rgba(10, 77, 63, 0.4)"></path><path d="M1184.0000000000002 300L0 300 L0 265.96Q66.88 234.18, 98.66666666666667 301.06Q103.76 246.95, 157.86666666666667 252.04Q182.82 217.79, 217.06666666666666 242.75Q278.51 205.53, 315.73333333333335 266.98Q359.63 212.21, 414.40000000000003 256.1Q477.48 220.52, 513.0666666666667 283.6Q555.96 267.29, 572.2666666666668 310.18Q593.77 233.02, 670.9333333333334 254.52Q706.08 230.47, 730.1333333333334 265.62Q767.42 204.24, 828.8000000000001 241.52Q876.99 230.5, 888.0000000000001 278.69Q950.79 242.81, 986.6666666666667 305.6Q1029.69 249.96, 1085.3333333333335 292.99Q1127.12 236.11, 1184.0000000000002 277.89z" fill="rgba(197, 161, 17, 0.4)"></path></g><defs><mask id="SvgjsMask1098"><rect width="1184" height="300" fill="#ffffff"></rect></mask></defs></svg>