<svg xmlns="http://www.w3.org/2000/svg" version="1.1" xmlns:xlink="http://www.w3.org/1999/xlink" xmlns:svgjs="http://svgjs.dev/svgjs" width="1318" height="877.3" preserveAspectRatio="none" viewBox="0 0 1318 877.3"><g mask="url(&quot;#SvgjsMask1017&quot;)" fill="none"><rect width="1318" height="877.3" x="0" y="0" fill="rgba(197, 161, 17, 0.4)"></rect><path d="M880 122.22C808.89 137.43 757.21 169.64 757.21 220C757.21 272.41 808.99 290.87 880 327.76C980.39 379.92 1018.8 427.31 1100 398.1C1168.58 373.43 1179.57 300.86 1179.57 220C1179.57 175.15 1149.18 162.72 1100 146.67C999.39 113.83 980.28 100.77 880 122.22" stroke="rgba(86, 108, 67, 0.37)" stroke-width="2"></path><path d="M1100 537.78C1057.25 548.68 1077.55 599.85 1077.55 660C1077.55 691.51 1072.32 714.5 1100 721.11C1193.55 743.45 1256.66 672.15 1320 717.89C1366.66 751.59 1366.67 845.61 1320 880C1256.67 926.67 1210 880 1100 880C1047.03 880 1044.35 892.14 994.07 880C934.35 865.59 931.78 826.9 880 826.9C850.3 826.9 863.74 872.12 831.11 880C753.74 898.67 745.56 880 660 880C550 880 550 880 440 880C330 880 330 880 220 880C110 880 55 935 0 880C-55 825 0 770 0 660C0 550 0 550 0 440C0 330 0 330 0 220C0 110 -55 55 0 0C55 -55 110 0 220 0C330 0 330 0 440 0C550 0 550 0 660 0C770 0 770 0 880 0C990 0 990 0 1100 0C1210 0 1265 -55 1320 0C1375 55 1320 110 1320 220C1320 330 1320 330 1320 440C1320 519.1 1365.04 578.18 1320 598.2C1255.04 627.07 1178.48 517.78 1100 537.78" stroke="rgba(86, 108, 67, 0.37)" stroke-width="2"></path><path d="M50.77 220C19.52 183.29 10.49 182.97 0 137.5C-14.89 72.97 -34.92 33.83 0 0C36.05 -34.92 75.01 -14.43 141.94 0C185.01 9.29 176.46 44.07 220 47.45C325.49 55.65 351.17 -16.9 440 23.16C542.47 69.37 602.61 132.09 602.61 220C602.61 288.95 529.5 295.71 440 336.88C338.19 383.71 313.94 424.21 220 396C119.32 365.77 129.52 312.54 50.77 220" stroke="rgba(86, 108, 67, 0.37)" stroke-width="2"></path><path d="M880 20.37C849.78 16.15 822.11 5.24 822.11 0C822.11 -4.94 851.06 0 880 0C990 0 990 0 1100 0C1130 0 1160 -8.86 1160 0C1160 10.55 1134.24 36.33 1100 38.82C994.24 46.51 988.72 35.56 880 20.37" stroke="rgba(86, 108, 67, 0.37)" stroke-width="2"></path><path d="M1296.6 220C1307.4 200.51 1313.68 182.07 1320 182.07C1325.38 182.07 1320 201.03 1320 220C1320 330 1320 330 1320 440C1320 488.2 1345.64 536.4 1320 536.4C1274.14 536.4 1181.77 504.52 1177 440C1170.07 346.32 1235.9 329.48 1296.6 220" stroke="rgba(86, 108, 67, 0.37)" stroke-width="2"></path><path d="M0 608.67C19.75 608.67 37.04 629.4 64.17 660C147.04 753.49 160.62 856.84 220 856.84C268.69 856.84 228.32 745.53 280.32 660C338.32 564.61 343.26 531.72 440 495C533.1 459.65 552.84 529.25 660 515.86C772.84 501.75 804.2 404.21 880 440C956.86 476.28 965.31 560.88 965.31 660C965.31 706.91 919.55 692.79 880 732.07C808.8 802.79 821.45 827.79 743.81 880C711.45 901.76 701.9 880 660 880C597.14 880 592.14 896.53 534.29 880C482.14 865.1 491.58 817.14 440 817.14C345.44 817.14 341.47 851.58 242 880C231.47 883.01 231 880 220 880C110 880 55 935 0 880C-55 825 0 770 0 660C0 634.34 -12.34 608.67 0 608.67" stroke="rgba(86, 108, 67, 0.37)" stroke-width="2"></path><path d="M1146.32 880C1146.32 851.95 1262.66 775.79 1320 775.79C1349.5 775.79 1352.57 860.46 1320 880C1265.73 912.57 1146.32 904.05 1146.32 880" stroke="rgba(86, 108, 67, 0.37)" stroke-width="2"></path><path d="M156.54 220C156.54 187.49 182.19 155.29 220 155.29C285.66 155.29 363.48 187.38 363.48 220C363.48 252.73 285.5 286 220 286C182.03 286 156.54 252.84 156.54 220" stroke="rgba(86, 108, 67, 0.37)" stroke-width="2"></path><path d="M1268.67 440C1268.67 400.74 1306.28 349.41 1320 349.41C1331.94 349.41 1320 394.71 1320 440C1320 457.31 1329.2 474.61 1320 474.61C1303.54 474.61 1268.67 463.34 1268.67 440" stroke="rgba(86, 108, 67, 0.37)" stroke-width="2"></path><path d="M369.03 660C369.03 623.77 397.22 586.67 440 586.67C517.32 586.67 609.23 624.08 609.23 660C609.23 695.66 517.79 729.84 440 729.84C397.69 729.84 369.03 695.35 369.03 660" stroke="rgba(86, 108, 67, 0.37)" stroke-width="2"></path><path d="M0 812.31C16.07 812.31 56.77 859.4 56.77 880C56.77 893.24 12.95 895.44 0 880C-15.44 861.59 -12.31 812.31 0 812.31" stroke="rgba(86, 108, 67, 0.37)" stroke-width="2"></path><path d="M1242.81 880C1242.81 867.53 1294.52 833.68 1320 833.68C1333.11 833.68 1334.47 871.31 1320 880C1295.88 894.47 1242.81 890.69 1242.81 880" stroke="rgba(86, 108, 67, 0.37)" stroke-width="2"></path></g><defs><mask id="SvgjsMask1017"><rect width="1318" height="877.3" fill="#ffffff"></rect></mask></defs></svg>