<svg xmlns="http://www.w3.org/2000/svg" version="1.1" xmlns:xlink="http://www.w3.org/1999/xlink" xmlns:svgjs="http://svgjs.dev/svgjs" width="1318" height="877.3" preserveAspectRatio="none" viewBox="0 0 1318 877.3"><g mask="url(&quot;#SvgjsMask1656&quot;)" fill="none"><rect width="1318" height="877.3" x="0" y="0" fill="url(&quot;#SvgjsLinearGradient1657&quot;)"></rect><circle r="10.49" cx="1136.57" cy="808.2" filter="url(#SvgjsFilter1658)" fill="rgba(255, 255, 255, 0.4)"></circle><circle r="9.355" cx="627.965" cy="156.915" filter="url(#SvgjsFilter1658)" fill="rgba(255, 255, 255, 0.4)"></circle><circle r="9.84" cx="785.4300000000001" cy="19.55" filter="url(#SvgjsFilter1658)" fill="rgba(255, 255, 255, 0.4)"></circle><circle r="12.005" cx="912.715" cy="465.245" filter="url(#SvgjsFilter1658)" fill="rgba(255, 255, 255, 0.4)"></circle><circle r="9.755" cx="207.975" cy="575.095" filter="url(#SvgjsFilter1658)" fill="rgba(255, 255, 255, 0.4)"></circle><circle r="11.325" cx="1072.055" cy="686.115" filter="url(#SvgjsFilter1658)" fill="rgba(255, 255, 255, 0.4)"></circle><circle r="7.705" cx="87.80499999999999" cy="712.4150000000001" filter="url(#SvgjsFilter1658)" fill="rgba(255, 255, 255, 0.4)"></circle><circle r="9.24" cx="842.5600000000001" cy="362.98" filter="url(#SvgjsFilter1658)" fill="rgba(255, 255, 255, 0.4)"></circle><circle r="8.565" cx="759.745" cy="315.565" filter="url(#SvgjsFilter1658)" fill="rgba(255, 255, 255, 0.4)"></circle><circle r="9.125" cx="1312.375" cy="673.755" filter="url(#SvgjsFilter1658)" fill="rgba(255, 255, 255, 0.4)"></circle><circle r="10.49" cx="778.78" cy="442.59000000000003" filter="url(#SvgjsFilter1658)" fill="rgba(255, 255, 255, 0.4)"></circle><circle r="13.635" cx="350.615" cy="140.315" filter="url(#SvgjsFilter1658)" fill="rgba(255, 255, 255, 0.4)"></circle><circle r="14.345" cx="315.355" cy="55.155" filter="url(#SvgjsFilter1658)" fill="rgba(255, 255, 255, 0.4)"></circle><circle r="12.095" cx="103.435" cy="786.225" filter="url(#SvgjsFilter1658)" fill="rgba(255, 255, 255, 0.4)"></circle><circle r="10.81" cx="391.27" cy="870.8399999999999" filter="url(#SvgjsFilter1658)" fill="rgba(255, 255, 255, 0.4)"></circle><circle r="11.56" cx="519.05" cy="299.07" filter="url(#SvgjsFilter1658)" fill="rgba(255, 255, 255, 0.4)"></circle><circle r="13.29" cx="1156.18" cy="300.39000000000004" filter="url(#SvgjsFilter1658)" fill="rgba(255, 255, 255, 0.4)"></circle><circle r="13.855" cx="589.0450000000001" cy="597.265" filter="url(#SvgjsFilter1658)" fill="rgba(255, 255, 255, 0.4)"></circle><circle r="13.595" cx="63.515" cy="655.155" filter="url(#SvgjsFilter1658)" fill="rgba(255, 255, 255, 0.4)"></circle><circle r="9.11" cx="1215.75" cy="733.37" filter="url(#SvgjsFilter1658)" fill="rgba(255, 255, 255, 0.4)"></circle><path d="M213.8 543.2L256 567.4 267.1 609.2 225.3 597.9 201.4 555.6C201.4 555.6 200.9 555.2 200.9 555.2 200.1 554.4 198.5 554.4 197.2 554.8 195.6 555.6 195.1 557.7 196.4 558.9L217.4 595.8 197.1 590.4 187.6 574.2C187.6 574.2 187.2 573.8 187.2 573.8 186.4 573 184.7 573 183.5 573.4 181.8 574.2 181.4 576.3 182.7 577.5L188.8 588.7 173.9 584.5C172.7 584.1 170.6 585.4 170.2 586.6 169.4 588.2 171 589.9 172.3 590.3L187.2 594.5 176 600.7C174.3 601.5 173.9 603.6 175.1 604.8 175.9 606.5 178 606.9 179.3 605.7L195.4 596.2 215.3 602.1 178.4 623.1C176.7 623.9 176.3 626 177.5 627.2 178.4 628.9 180.4 629.3 181.7 628L224 604.1 265.8 615.5 234.6 646.4 185.8 646.3C184.1 646.3 182.9 647.5 182.9 649.2 182.9 650.8 184.1 652.1 185.7 652.1L228.8 652.2 213.9 667.1 195.6 667C194 667 192.7 668.3 192.7 669.9 192.7 671.6 194 672.8 195.6 672.8L208.1 672.9 196.4 684.4C194.8 685.2 195.2 687.3 196.4 688.6 197.6 689.8 199.3 689.8 200.6 688.6L211.4 677.8 211.3 690.3C211.3 691.9 212.5 693.2 214.2 693.2S217.1 691.9 217.1 690.3L217.2 672.1 232.1 657.2 232 700.3C232 701.9 233.2 703.2 234.9 703.2 236.5 703.2 237.8 701.9 237.8 700.3L237.9 651.4 268.7 620.8 279.7 662.7 256 703.7C255.2 705.3 256 707 257.2 708.2 258.9 709 260.6 708.2 261.8 707L283 670.2 288.4 690.5 278.8 706.6C277.9 708.3 278.8 709.9 280 711.2 281.7 712 283.3 711.2 284.2 710.4L290.4 699.2 294.5 714.1C294.9 715.4 296.6 717 298.2 716.2 299.9 715.4 301.1 714.1 300.3 712.5L296.2 697.6 307.4 703.8C309 704.6 310.7 703.8 311.5 703 311.9 701.7 311.9 700.1 311.1 699.3 311.1 699.3 310.7 698.8 310.7 698.8L294.6 689.3 289.2 669 326.1 690.2C327.7 691 329.4 690.2 330.2 689.4 330.6 688.1 330.6 686.5 329.8 685.6 329.8 685.6 329.4 685.2 329.4 685.2L287.2 661.1 276.1 619.2 317.9 630.5 341.8 672.8C342.7 674.5 344.7 674.9 346 673.7 347.6 672.9 348.1 670.8 346.8 669.5L325.8 632.6 346.1 638.1 355.6 654.2C356.4 655.9 358.5 656.3 359.7 655.1 361.4 654.3 361.8 652.2 360.5 650.9L354.4 639.7 369.3 643.9C370.5 644.3 372.6 643.1 373 641.9 373.4 640.6 373 639.4 372.2 638.6 371.8 638.1 371.4 637.7 370.5 637.7L355.6 633.5 366.8 627.4C368.5 626.5 368.9 624.5 367.7 623.2 367.7 623.2 367.3 622.8 367.3 622.8 366.4 622 364.8 622 363.5 622.4L347.3 631.9 327.1 626.4 364 605.4C365.7 604.6 366.1 602.5 364.8 601.3 364.8 601.3 364.4 600.8 364.4 600.8 363.6 600 361.9 600 360.7 600.4L318.4 624.3 276.6 613 307.3 582.4 356.2 582.6C357.9 582.6 359.1 581.4 359.1 579.7 359.1 578 357.9 576.8 356.2 576.8L313.5 576.2 328.5 561.4 346.7 561.4C348.4 561.4 349.6 560.2 349.6 558.5S348.4 555.6 346.7 555.6L334.3 555.6 345.1 544.9C346.4 543.6 346.4 542 345.1 540.7 343.9 539.5 342.2 539.5 341 540.7L330.2 551.4 330.2 539C330.2 538.2 330.2 537.4 329.4 536.5S327.8 535.7 326.9 535.7C325.3 535.7 324 536.9 324 538.6L324 556.8 309 571.7 309.1 528.6C309.1 527.8 309.1 526.9 308.3 526.1 307.9 525.7 306.7 525.3 305.8 525.3 304.2 525.3 302.9 526.5 302.9 528.2L302.8 577 272 607.6 261 565.7 285.1 523.6C285.5 522.3 285.5 520.7 284.7 519.8 284.7 519.8 284.3 519.4 284.3 519.4 282.7 518.6 281 519.4 280.2 520.2L258.9 557 253.6 536.7 263.2 520.6C263.6 519.4 263.6 517.7 262.8 516.9 262.8 516.9 262.4 516.4 262.4 516.4 260.7 515.6 259.1 516.4 258.2 517.3L252 528.4 247.9 513.5C247.5 513.1 247.5 512.3 247.1 511.8 246.2 511 245 510.6 243.7 511 242.1 511.8 240.8 513.1 241.7 514.7L245.8 529.7 234.6 523.4C232.9 522.6 231.3 523.4 230.4 524.2 229.6 525.9 230.4 527.5 231.3 528.4L247.4 537.9 252.7 558.3 215.9 537C214.3 536.2 212.6 537 211.8 537.8 211.8 540.3 212.2 542.4 213.8 543.2Z" fill="rgba(255, 255, 255, 0.4)"></path><path d="M1240.1 192.2L1263.7 209.4 1265.1 220 1257.2 214.1C1256.5 213.3 1255.4 213.7 1254.6 214.4 1254.2 215.1 1254.3 216.4 1255.1 216.8L1265.9 225 1267.6 235.4 1257.9 231.4 1252.5 218.8C1252.5 218.8 1252.3 218.5 1252.3 218.5 1251.8 218 1250.8 217.8 1250 218 1249.1 218.7 1248.8 219.4 1249.2 220.5L1253.1 229.6 1243.4 225.6 1231.5 199C1231.5 199 1231.6 198.5 1231.6 198.5 1231.1 197.9 1230.1 197.8 1229.3 198 1228.2 198.4 1227.8 199.6 1228.5 200.5L1238.7 223.8 1226.7 219.3 1222.1 208.9C1222.1 208.9 1222.1 208.9 1221.9 208.6 1221.4 208 1220.7 207.7 1219.9 207.9 1219 208.5 1218.4 209.5 1218.8 210.6L1221.9 217.5 1213.2 214.1C1212.2 213.5 1211.3 214.2 1211 214.9 1210.4 215.9 1210.8 217 1212 217.4L1220.5 221 1213.7 223.6C1212.8 224.3 1212.2 225.2 1212.9 226.1 1213.3 227.2 1214 227.5 1215.1 227.1L1225.5 222.6 1237.2 227.3 1213.7 237.6C1212.9 237.8 1212.5 239.1 1212.9 240.2 1213.3 240.7 1214.3 241.4 1215.4 241L1242 229.1 1251.7 233.1 1242.6 237C1241.6 237.4 1241.4 238.4 1241.8 239.5 1242 240.3 1243.3 240.7 1244.1 240.5L1256.4 234.9 1266.4 238.6 1258.1 245.2 1244.8 243.7C1243.7 243.6 1242.9 244.3 1242.8 245.3 1242.4 246.1 1243.3 247.2 1244.4 247.3L1254.1 248.4 1245.8 255.1 1216.8 251.5C1215.8 251.4 1214.9 252.1 1214.8 253.1 1214.7 254.2 1215.4 255 1216.4 255.1L1241.8 258.3 1232.1 266 1220.8 264.8C1219.7 264.6 1218.9 265.3 1218.8 266.4 1218.7 267.4 1219.3 268.2 1220.4 268.4L1227.8 269.5 1220.7 275.2C1219.8 275.8 1219.7 276.9 1220.4 277.7 1221 278.6 1222.1 278.7 1222.9 278L1230.1 272.3 1229.3 279.5C1229.2 280.5 1229.9 281.4 1230.9 281.5S1232.8 280.9 1232.9 279.9L1234.1 269.1 1244.1 261.1 1241.3 286.3C1241.2 287.4 1241.9 288.2 1242.9 288.3 1243.9 288.5 1244.8 287.8 1244.9 286.7L1248.1 257.9 1256.4 251.3 1255.3 261.1C1255.2 262.1 1255.9 263 1256.9 263.1 1257.9 263.2 1258.8 262.5 1258.9 261.5L1260.4 248.1 1268.4 241.7 1269.9 251.8 1261.9 262.9C1261.5 263.6 1261.7 264.9 1262.4 265.3 1263.4 265.9 1264.2 265.7 1265 265L1270.9 257.1 1272.3 267.2 1255.1 290.7C1254.5 291.7 1254.7 292.5 1255.3 293.4 1256.3 294 1257.4 293.6 1258 293.2L1273.3 272.5 1275 285.2 1268.5 294.1C1267.7 294.8 1268.1 295.9 1268.8 296.7 1269.5 297.1 1270.8 296.9 1271.5 296L1275.8 290.2 1277.3 299.2C1277.2 300.3 1278.2 300.9 1279.5 300.8 1280.3 300.6 1280.9 299.6 1280.8 298.8L1279.5 289.6 1285.5 294.2C1286.4 294.8 1287.5 294.4 1287.9 293.6 1288.7 293 1288.6 292.2 1288.1 291.6 1287.9 291.3 1287.9 291.3 1287.6 291L1278.7 284.5 1277 271.8 1297.5 286.9C1298.2 287.8 1299.3 287.4 1300.1 286.7 1300.5 285.9 1300.3 285.1 1299.8 284.6 1299.6 284.3 1299.6 284.3 1299.6 284.3L1276.1 266.5 1274.6 256.5 1282.5 262.3C1283.5 262.9 1284.3 262.8 1285.2 262.1 1285.5 261.3 1285.6 260.3 1285.2 259.7 1284.9 259.4 1284.9 259.4 1284.7 259.2L1273.6 251.1 1272.1 241.1 1281.6 244.8 1287.3 257.1C1287.7 258.2 1288.9 258.6 1289.7 258.4 1290.6 257.7 1291.2 256.8 1290.5 255.9L1286.6 246.9 1296.4 250.3 1308.2 277.4C1308.4 278.2 1309.6 278.6 1310.4 278.5 1311.3 277.8 1311.9 276.8 1311.5 275.7L1301.4 252.4 1313.1 257.1 1317.4 267.3C1317.8 268.3 1319.1 268.7 1319.9 268.1 1320.7 267.9 1321.4 266.9 1321 265.8L1317.8 259 1326.6 262.3C1327.3 262.6 1328.4 262.2 1329 261.3 1329.1 260.8 1328.9 260 1328.4 259.4 1328.4 259.4 1328.2 259.1 1328 258.8L1319.2 255.5 1326.1 252.3C1326.9 252.2 1327.3 250.9 1327.1 250.1 1326.9 249.8 1326.9 249.8 1326.9 249.8 1326.2 249 1325.2 248.9 1324.6 249.3L1314.5 253.6 1302.5 249.2 1326.1 238.8C1326.9 238.1 1327.3 237.4 1326.9 236.3 1326.9 236.3 1326.6 236 1326.6 236 1326.2 235.4 1325.4 235.1 1324.4 235.5L1297.5 247.1 1288 243.4 1297.1 239.4C1297.9 238.8 1298.6 237.8 1297.9 236.9 1298.2 236.7 1297.9 236.4 1297.9 236.4 1297.5 235.8 1296.5 235.7 1295.7 235.9L1283.3 241.5 1273.6 237.6 1281.6 231.2 1295 232.7C1296 232.8 1297.1 231.9 1297.3 230.9 1297.1 230.1 1296.4 229.2 1295.7 228.9L1285.6 228 1293.9 221.4 1322.7 224.6C1323.7 224.7 1324.6 224 1324.7 223 1324.8 222 1324.1 221.1 1323.1 221L1297.9 218.2 1307.9 210.2 1318.7 211.4C1319.8 211.5 1320.6 210.8 1320.7 209.8S1320.2 207.9 1319.1 207.8L1311.9 207 1319.1 201.3C1319.9 200.6 1320 199.6 1319.4 198.7 1318.7 197.8 1317.6 197.7 1316.8 198.4L1309.6 204.1 1310.2 196.6C1310.3 196.1 1310.3 195.6 1310.1 195.3 1309.9 195 1309.1 194.7 1308.6 194.6 1307.6 194.5 1306.7 195.2 1306.6 196.2L1305.6 207.3 1295.6 215.3 1298.2 189.8C1298.3 189.3 1298.3 188.8 1298.1 188.5 1297.9 188.2 1297.1 187.9 1296.6 187.8 1295.6 187.7 1294.7 188.4 1294.6 189.4L1291.6 218.5 1283.3 225.1 1284.7 215.1C1284.8 214.6 1284.3 214 1284.1 213.8 1283.8 213.5 1283.6 213.2 1283.1 213.1 1282.1 213 1280.9 213.9 1281.1 214.7L1279.3 228.3 1271.3 234.7 1269.6 224.4 1277.8 213.6C1278.2 212.8 1278.3 211.8 1277.8 211.2 1277.6 211 1277.6 211 1277.3 211.2 1276.6 210.3 1275.3 210.4 1274.7 211.4L1268.9 219.4 1267.1 209 1284.9 185.5C1285.2 184.7 1285.1 183.9 1284.6 183.3 1284.4 183.1 1284.4 183.1 1284.4 183.1 1283.4 182.4 1282.4 182.3 1281.8 183.3L1266.4 204 1264.7 191.3 1271.2 182.4C1271.8 181.4 1271.6 180.6 1271.2 180 1271.2 180 1271 179.7 1271 179.7 1270 179.1 1268.9 179.5 1268.3 180L1264 186.2 1262.7 177C1262.4 176.7 1262.2 176.4 1262 176.1 1261.8 175.8 1261 175.5 1260.5 175.4 1259.4 175.8 1258.5 176.5 1258.9 177.6L1260.3 186.9 1254.3 182.3C1253.3 181.7 1252.2 182.1 1251.6 182.5 1251 183.5 1251.4 184.6 1252.1 185.4L1261 191.9 1263 204.4 1242.5 189.3C1241.6 188.7 1240.2 188.8 1239.9 189.5 1239.3 190.5 1239.2 191.5 1240.1 192.2Z" fill="rgba(255, 255, 255, 0.4)"></path><path d="M298.5 140L347.1 142.5 375.9 174.9 333.5 183.7 293 156.7C293 156.7 292.5 156.5 292.5 156.5 291.4 156.2 289.9 156.9 289 157.8 287.8 159.3 288.4 161.4 290.1 161.9L325.5 185.4 304.9 189.7 289.2 179.5C289.2 179.5 288.6 179.3 288.6 179.3 287.5 179 286 179.7 285.1 180.6 284 182.1 284.6 184.2 286.2 184.7L296.8 191.9 281.6 194.9C280.3 195.1 279 197.1 279.2 198.4 279.2 200.3 281.4 201 282.7 200.8L297.9 197.8 290.7 208.4C289.6 209.9 290.2 211.9 291.8 212.5 293.3 213.6 295.4 213 295.9 211.4L306.1 195.6 326.4 191.8 303 227.3C301.9 228.8 302.4 230.8 304.1 231.4 305.6 232.5 307.6 231.9 308.2 230.2L335.1 189.8 377.5 181 363.7 222.7 320.1 244.7C318.6 245.4 318 247.1 318.8 248.5 319.5 250 321.2 250.6 322.7 249.8L361.2 230.5 354.5 250.5 338.2 258.7C336.8 259.4 336.2 261.1 337 262.6 337.7 264.1 339.4 264.6 340.8 263.9L351.9 258.3 346.8 273.9C345.7 275.4 347 277 348.7 277.6 350.3 278.1 351.8 277.4 352.4 275.7L357.1 261.3 362.7 272.4C363.5 273.8 365.1 274.4 366.6 273.6S368.6 271.2 367.9 269.8L359.7 253.5 366.3 233.4 385.7 271.9C386.4 273.4 388.1 274 389.6 273.2 391.1 272.5 391.6 270.8 390.9 269.3L368.9 225.7 382.6 184.5 411.3 216.9 408.6 264.1C408.6 266 410.1 267.1 411.8 267.6 413.7 267.6 414.8 266.1 415.3 264.5L417.6 222 431.6 237.8 430.3 256.5C430.3 258.3 431.8 259.4 433.5 260 435.3 260 436.4 258.5 436.8 257.4L437.3 244.6 447.7 256.1C448.6 257 450.9 257.7 452 256.2 453.1 254.8 453.6 253.1 452.2 252L441.8 240.5 454.5 241.1C456.4 241 457.5 239.6 457.9 238.5 457.7 237.2 456.9 235.7 455.8 235.3 455.8 235.3 455.3 235.1 455.3 235.1L436.6 233.9 422.6 218.1 465.1 220.5C466.9 220.5 468 219 468.4 217.9 468.2 216.6 467.5 215.1 466.3 214.7 466.3 214.7 465.8 214.5 465.8 214.5L417.2 212 388.5 179.7 430.9 170.9 471.3 197.9C472.8 199 474.8 198.4 475.4 196.7 476.5 195.3 475.9 193.2 474.3 192.7L438.8 169.2 459.4 164.9 475.2 175.1C476.6 176.2 478.7 175.6 479.2 173.9 480.3 172.5 479.8 170.4 478.1 169.9L467.5 162.7 482.7 159.7C484 159.5 485.3 157.4 485.1 156.2 484.9 154.9 484 153.9 482.9 153.6 482.3 153.4 481.8 153.2 481 153.6L465.9 156.6 473.1 146C474.2 144.5 473.6 142.5 471.9 141.9 471.9 141.9 471.4 141.7 471.4 141.7 470.3 141.4 468.8 142.1 467.9 143L457.7 158.8 437.2 163.1 460.6 127.7C461.7 126.2 461.2 124.2 459.5 123.6 459.5 123.6 458.9 123.4 458.9 123.4 457.8 123 456.3 123.8 455.4 124.7L428.5 165.2 386 173.9 399.7 132.8 443.3 110.9C444.8 110.1 445.4 108.4 444.6 107 443.9 105.5 442.2 104.9 440.7 105.7L402.4 124.5 409.1 104.4 425.3 96.3C426.8 95.5 427.4 93.8 426.6 92.4S424.2 90.3 422.7 91.1L411.6 96.7 416.4 82.2C417 80.5 416.2 79 414.6 78.5 412.9 77.9 411.4 78.7 410.9 80.4L406.1 94.8 400.5 83.7C400.1 83 399.8 82.2 398.6 81.9S396.8 81.9 396.1 82.2C394.6 83 394 84.6 394.8 86.1L402.9 102.4 396.3 122.4 377 83.9C376.6 83.2 376.2 82.5 375.1 82.1 374.6 81.9 373.3 82.1 372.5 82.5 371 83.2 370.5 84.9 371.2 86.4L393.2 130 379.6 171.2 350.8 138.8 353.3 90.3C353.1 89 352.3 87.5 351.2 87.1 351.2 87.1 350.7 87 350.7 87 348.8 87 347.7 88.4 347.3 89.6L345 132 331.1 116.3 332.4 97.6C332.2 96.3 331.4 94.8 330.3 94.4 330.3 94.4 329.8 94.2 329.8 94.2 327.9 94.2 326.8 95.7 326.4 96.8L325.9 109.6 315.5 98.1C314.9 98 314.6 97.2 314 97 312.9 96.7 311.6 96.9 310.7 97.8 309.6 99.3 309 100.9 310.5 102L320.9 113.5 308.1 113C306.3 113 305.2 114.5 304.8 115.6 304.8 117.4 306.3 118.5 307.4 118.9L326.1 120.2 340 135.9 297.6 133.6C295.8 133.6 294.6 135 294.3 136.2 295.4 138.4 296.7 140 298.5 140Z" fill="rgba(255, 255, 255, 0.4)"></path><path d="M198.4 300.7L168 300.1 149.4 280.4 175.7 274.1 201.5 290.2C201.5 290.2 201.9 290.3 201.9 290.3 202.6 290.5 203.5 290 204 289.4 204.7 288.5 204.3 287.2 203.3 286.9L180.7 272.9 193.4 269.8 203.5 275.9C203.5 275.9 203.8 276 203.8 276 204.5 276.2 205.4 275.7 206 275.1 206.7 274.2 206.3 272.9 205.2 272.6L198.5 268.3 207.9 266.1C208.7 266 209.5 264.7 209.3 263.9 209.3 262.7 207.9 262.3 207.1 262.4L197.7 264.6 202 257.9C202.6 256.9 202.2 255.7 201.2 255.3 200.2 254.7 199 255.1 198.7 256.1L192.6 266.2 180 268.9 193.9 246.3C194.6 245.4 194.2 244.1 193.2 243.8 192.2 243.1 191 243.5 190.6 244.6L174.6 270.3 148.2 276.6 156.1 250.3 182.9 235.8C183.9 235.3 184.2 234.2 183.7 233.3 183.2 232.4 182.1 232.1 181.2 232.6L157.5 245.4 161.3 232.8 171.3 227.4C172.2 226.9 172.5 225.8 172.1 224.9 171.6 224 170.5 223.7 169.6 224.2L162.8 227.9 165.7 218C166.4 217.1 165.5 216.1 164.5 215.8 163.4 215.4 162.5 215.9 162.2 217L159.5 226.1 155.8 219.3C155.3 218.4 154.2 218.1 153.3 218.6S152.1 220.1 152.6 221L158 231 154.2 243.7 141.4 220C140.9 219.1 139.9 218.8 139 219.2 138.1 219.7 137.8 220.8 138.2 221.7L152.8 248.6 145.1 274.5 126.5 254.9 127.2 225.3C127.2 224.1 126.3 223.5 125.2 223.2 124 223.2 123.4 224.2 123.1 225.2L122.4 251.8 113.4 242.2 113.9 230.5C113.8 229.3 112.9 228.7 111.8 228.4 110.7 228.4 110 229.3 109.8 230L109.7 238 103 231.1C102.4 230.5 101 230.1 100.3 231 99.7 232 99.3 233 100.3 233.7L107 240.7 99 240.6C97.9 240.6 97.2 241.6 97 242.3 97.1 243.1 97.6 244 98.3 244.2 98.3 244.2 98.7 244.3 98.7 244.3L110.4 244.7 119.4 254.3 92.8 253.6C91.7 253.7 91 254.6 90.8 255.3 90.9 256.1 91.4 257 92.1 257.3 92.1 257.3 92.5 257.4 92.5 257.4L122.9 258 141.4 277.7 115.1 284 89.4 267.9C88.4 267.2 87.1 267.6 86.8 268.7 86.2 269.6 86.6 270.9 87.6 271.2L110.2 285.2 97.4 288.2 87.4 282.2C86.4 281.5 85.2 281.9 84.9 283 84.2 283.9 84.6 285.2 85.6 285.5L92.4 289.8 82.9 292C82.1 292.1 81.4 293.4 81.5 294.2 81.7 295 82.3 295.6 83 295.8 83.3 295.9 83.7 296 84.1 295.7L93.5 293.6 89.2 300.3C88.6 301.3 89 302.5 90 302.8 90 302.8 90.4 302.9 90.4 302.9 91.1 303.2 92 302.7 92.5 302.1L98.6 292 111.3 288.9 97.4 311.5C96.7 312.5 97.1 313.7 98.1 314 98.1 314 98.5 314.2 98.5 314.2 99.2 314.4 100.1 313.9 100.7 313.3L116.7 287.5 143.1 281.2 135.3 307.2 108.5 321.7C107.6 322.2 107.2 323.3 107.7 324.2 108.2 325.1 109.3 325.4 110.2 324.9L133.8 312.4 130 325.1 120 330.5C119.1 331 118.8 332 119.3 332.9S120.8 334.2 121.7 333.7L128.5 330 125.8 339.1C125.5 340.2 126 341.1 127.1 341.4 128.1 341.7 129 341.2 129.3 340.1L132.1 331 135.8 337.9C136 338.3 136.2 338.8 136.9 339S138.1 338.9 138.6 338.7C139.5 338.2 139.8 337.1 139.3 336.2L133.9 326.2 137.6 313.6 150.4 337.3C150.7 337.7 150.9 338.2 151.6 338.4 152 338.5 152.8 338.3 153.2 338.1 154.2 337.6 154.5 336.6 154 335.6L139.4 308.8 147.2 282.8 165.8 302.5 165.1 332.8C165.3 333.7 165.8 334.6 166.5 334.8 166.5 334.8 166.8 334.9 166.8 334.9 168 334.8 168.6 333.9 168.8 333.2L169.5 306.6 178.5 316.2 178.1 327.9C178.2 328.7 178.7 329.6 179.4 329.8 179.4 329.8 179.7 329.9 179.7 329.9 180.9 329.9 181.6 329 181.8 328.3L181.9 320.3 188.6 327.2C188.9 327.3 189.2 327.8 189.5 327.9 190.2 328.1 191 328 191.6 327.4 192.3 326.4 192.6 325.4 191.6 324.7L184.9 317.7 192.9 317.8C194.1 317.8 194.7 316.8 194.9 316.1 194.9 315 193.9 314.3 193.2 314.1L181.5 313.7 172.5 304.1 199.1 304.8C200.2 304.7 200.9 303.8 201.1 303.1 200.4 301.7 199.5 300.7 198.4 300.7Z" fill="rgba(255, 255, 255, 0.4)"></path><path d="M397.7 346.4L389.3 369.2 369.6 378.2 371.7 356.6 390.5 341.3C390.5 341.3 390.7 341.1 390.7 341.1 391 340.6 390.9 339.8 390.6 339.2 390.1 338.5 389 338.4 388.5 339.1L372 352.6 373 342.1 380.2 336.1C380.2 336.1 380.4 335.9 380.4 335.9 380.7 335.4 380.6 334.6 380.3 334 379.8 333.2 378.7 333.2 378.2 333.9L373.2 337.9 374 330.2C374.1 329.6 373.3 328.6 372.7 328.5 371.8 328.3 371.1 329.2 371 329.9L370.2 337.6 366.2 332.5C365.7 331.8 364.6 331.8 364.1 332.5 363.3 333 363.3 334.1 364 334.6L370 341.8 368.8 352.1 355.4 335.6C354.8 334.9 353.8 334.8 353.3 335.5 352.5 336.1 352.5 337.1 353.2 337.6L368.5 356.5 366.4 378.1 348.5 365.3 344.5 341.2C344.4 340.4 343.7 339.8 342.9 340 342.1 340.1 341.5 340.8 341.7 341.6L345.2 362.9 336.6 356.8 335.1 347.8C335 347 334.3 346.4 333.5 346.6 332.6 346.7 332.1 347.4 332.3 348.2L333.3 354.4 326.6 349.6C326.1 348.9 325.1 349.2 324.6 349.9 324.1 350.7 324.2 351.5 324.9 352L331.1 356.4 325 357.4C324.2 357.6 323.7 358.3 323.8 359.1S324.6 360.4 325.5 360.3L334.4 358.8 343 364.9 321.8 368.5C321 368.6 320.4 369.3 320.6 370.1 320.7 370.9 321.4 371.5 322.2 371.3L346.4 367.3 364 379.9 344.3 388.9 322.1 380.6C321.2 380.3 320.5 380.9 320 381.6 319.7 382.5 320.2 383.2 320.9 383.7L340.8 391.1 331.3 395.4 322.5 392.1C321.6 391.8 320.9 392.3 320.4 393 320.1 393.9 320.7 394.7 321.1 395L327.2 397.2 320.1 400.4C319.6 400.7 318.9 401.7 319.4 402.4 320 403.2 320.7 403.7 321.4 403.2L328.4 399.9 326.3 405.9C326 406.8 326.6 407.6 327 407.9 327.7 408 328.5 407.9 328.8 407.4 328.8 407.4 329 407.1 329 407.1L332.4 398.4 342 394.1 334.6 414C334.3 414.9 334.8 415.6 335.3 416 336 416.1 336.8 415.9 337.1 415.5 337.1 415.5 337.3 415.2 337.3 415.2L345.7 392.4 365.4 383.5 363.3 405 344.4 420.3C343.7 420.9 343.6 421.9 344.4 422.4 344.9 423.2 346 423.2 346.5 422.5L362.9 409.1 361.9 419.5 354.7 425.6C354 426.1 354 427.2 354.7 427.7 355.2 428.4 356.3 428.4 356.8 427.7L361.8 423.8 361 431.4C360.9 432.1 361.6 433 362.3 433.1 362.9 433.2 363.5 432.9 363.9 432.4 364 432.2 364.2 432 364.1 431.6L365 423.9 368.9 428.9C369.5 429.6 370.5 429.7 371 428.9 371 428.9 371.2 428.7 371.2 428.7 371.6 428.2 371.4 427.4 371.1 426.8L365.1 419.6 366.1 409.2 379.5 425.6C380.1 426.4 381.1 426.4 381.6 425.7 381.6 425.7 381.8 425.5 381.8 425.5 382.2 425 382 424.2 381.7 423.6L366.4 404.7 368.5 383.2 386.1 395.8 390.1 419.9C390.3 420.7 391 421.2 391.8 421.1 392.6 421 393.1 420.2 393 419.4L389.7 398.3 398.3 404.5 399.8 413.5C399.9 414.3 400.6 414.8 401.4 414.7S402.8 413.8 402.6 413L401.6 406.9 407.8 411.3C408.5 411.8 409.3 411.7 409.8 411 410.4 410.2 410.2 409.4 409.5 408.9L403.3 404.5 409.4 403.5C409.9 403.4 410.3 403.3 410.6 402.9S410.9 402 410.8 401.6C410.7 400.8 410 400.2 409.1 400.4L400.1 401.9 391.6 395.7 412.8 392.2C413.2 392.1 413.6 392.1 414 391.6 414.2 391.4 414.3 390.7 414.2 390.3 414.1 389.5 413.3 389 412.5 389.1L388.4 393.1 370.8 380.5 390.5 371.6 413.3 379.9C414 380.1 414.8 379.9 415.1 379.4 415.1 379.4 415.3 379.2 415.3 379.2 415.6 378.3 415 377.6 414.5 377.2L394.6 369.8 404.2 365.5 412.9 368.9C413.6 369 414.4 368.9 414.8 368.4 414.8 368.4 414.9 368.1 414.9 368.1 415.2 367.3 414.7 366.5 414.2 366.2L408.2 364 415.2 360.7C415.3 360.5 415.7 360.4 415.9 360.2 416.3 359.7 416.4 359.1 416.1 358.5 415.5 357.8 414.8 357.2 414 357.8L407 361 409.2 355C409.5 354.1 408.9 353.4 408.4 353 407.5 352.8 406.8 353.3 406.5 353.8L403.1 362.5 393.5 366.9 400.9 346.9C401.2 346.1 400.6 345.3 400.2 345 398.9 345.2 398 345.5 397.7 346.4Z" fill="rgba(255, 255, 255, 0.4)"></path><path d="M1375.1 626L1357.4 630.9 1360.1 618.8C1360.5 617.6 1359.6 615.9 1357.9 615.2 1356.3 615.2 1354.6 616.1 1354.2 617.3L1350.4 633.1 1334 637.6 1342 605.5C1342.4 603.5 1341.5 601.8 1339.8 601.9 1338.2 601.1 1336.5 601.9 1336.2 604L1327.4 639.4 1312.5 643.9 1286.8 619.1 1289.8 605.8 1327.3 595.5C1327.7 595.1 1328.1 594.6 1328.5 594.2 1328.9 593.8 1329.3 592.5 1329.3 591.7 1328.8 589.7 1327.1 588.9 1325.5 589.7L1291.3 599.1 1295.5 582.9 1312.8 577.6C1313.2 578 1313.7 577.5 1314.1 577.1 1314.9 576.3 1315.3 575 1314.8 573.8 1314.4 572.6 1312.7 571.8 1311 571.8L1297.1 576.2 1302 555.8C1302.4 554.6 1301.5 552.9 1299.9 552.1 1298.2 552.2 1296.6 553 1296.2 554.3L1291.6 573.4 1282.7 564.9C1281.5 563.7 1279.4 564.2 1278.6 565 1277.4 566.3 1277 568.4 1278.3 569.6L1289.7 580.5 1285.5 596.8 1261.8 574.1C1260.5 572.8 1258.9 572.9 1257.6 574.1 1256.4 575.4 1256.5 577.1 1257.7 578.3L1283.9 603.4 1280.9 617.6 1246.3 627.4 1236.6 618.1 1245.4 581.9C1246.2 580.2 1244.9 578.1 1243.2 578.2 1241.6 577.4 1240.3 578.7 1239.5 580.3L1231.5 613.2 1219.3 601.5 1223.5 585.2C1223.9 584 1222.6 581.9 1221.3 581.5S1218 582.4 1217.3 584.1L1214.2 596.6 1199.4 582.4C1198.1 581.2 1196.1 581.6 1194.9 582.9 1194 583.8 1193.7 585.8 1194.9 587.1L1209.7 601.2 1197 605.2C1195.7 605.7 1194.5 606.9 1195 609 1195.4 610.2 1197.5 611.4 1198.8 611L1214.8 606.1 1227.1 617.9 1194.5 627.2C1192.9 628.1 1191.7 629.4 1192.1 631.4 1192.6 632.7 1194.7 633.9 1195.9 633.4L1232.1 622.7 1241.9 632.1 1233.5 667 1219.5 670.6 1193.3 645.5C1192 644.3 1190.3 644.3 1189.1 645.6 1187.9 646.9 1187.5 648.9 1188.8 650.2L1212.5 672.9 1196.4 677.8 1185 666.8C1183.7 665.6 1182.1 665.6 1180.9 666.9 1179.6 668.2 1179.7 669.8 1180.9 671L1189.8 679.5 1170.9 684.9C1169.6 685.4 1168.4 687.4 1168.9 688.7 1169.7 690.3 1171 691.5 1172.7 690.7L1192.4 685.3 1189 699C1189 700.7 1189.9 702.3 1191.1 702.7 1192.4 703.1 1193.6 702.7 1194.4 701.8 1194.4 701.8 1194.8 701.4 1194.8 700.6L1199.4 683.1 1215.5 678.2 1207.5 712.7C1206.7 714.4 1207.6 716.1 1209.6 716.4 1210.5 716.4 1211.3 716.4 1212.1 715.5 1212.5 715.1 1212.9 714.7 1213.3 714.3L1222.1 676.4 1235.3 672.8 1261 697.5 1257.2 712.5 1222.2 722.8C1220.1 723.2 1219.4 724.9 1220.2 726.6 1220.2 728.2 1221.9 729 1224 728.6L1255.7 719.2 1251.9 735.8 1236.2 740.3C1235 740.8 1234.2 742.4 1234.3 744.1 1235.1 745.7 1236.4 746.9 1238 746.1L1250 742.9 1245.8 760.8C1245 762.5 1246.3 763.7 1247.9 764.5 1248.8 764.5 1250 764.1 1250.8 763.2 1250.8 763.2 1251.2 762.8 1251.6 762.4L1256.2 743.2 1266.8 753.4C1267.6 754.2 1269.7 754.5 1270.9 753.3 1272.1 752 1271.7 749.9 1270.8 749.1L1257.7 736.6 1261.5 719.9 1287.3 744.6C1288.6 745.9 1290.6 745.4 1291.8 744.1S1293 741.2 1291.8 740L1263.4 712.8 1266.9 699.1 1301.5 689.2 1312.5 699.8 1303.3 736.4C1303.3 738.1 1304.2 739.7 1305.9 740.5 1306.7 740.5 1307.9 740.1 1308.7 739.2 1309.1 738.8 1309.5 738.4 1309.5 737.5L1317.5 704.7 1329.8 716.4 1326 733.1C1325.6 734.3 1326.5 736 1328.1 736.7 1329.8 736.7 1331.4 735.8 1331.8 734.6L1334.9 721.3 1348.4 734.3C1349.2 735.1 1351.7 735 1352.5 734.2 1353.8 732.9 1353.7 730.4 1352.9 729.6L1339.3 716.6 1352.1 713.5C1352.5 713 1352.9 712.6 1353.3 712.2 1354.1 711.3 1354.5 710.1 1354.5 709.3 1353.6 707.6 1352 706.8 1350.3 706.9L1334.3 711.8 1322 700 1354.5 690.6C1356.6 690.2 1357.4 688.5 1356.9 687.3 1356.5 685.2 1354.8 684.4 1353.2 684.4L1316.9 695.1 1305.9 684.6 1314.3 649.6 1327.9 645.6 1356.2 672.8C1357.5 674 1359.2 674 1360.4 672.7 1361.6 671.4 1361.6 669.8 1360.3 668.5L1334.5 643.8 1351 639.3 1364.1 651.9C1364.9 652.7 1367.4 652.7 1368.6 651.4 1369.8 650.1 1369.4 648.1 1368.5 647.2L1358 637.1 1376.9 631.7C1377.3 631.3 1377.3 631.3 1377.7 630.9 1378.5 630.1 1378.9 628.8 1378.9 628 1378.1 626.3 1376.4 625.5 1375.1 626ZM1300.9 679.7L1299.7 683.5 1296.4 684.4 1268.4 692.4 1265.1 693.3 1262.6 690.9 1241.8 671 1239.3 668.6 1240.1 665.2 1246.9 636.9 1247.7 633.6 1251.4 632.3 1279 624.7 1282.7 623.3 1285.2 625.8 1306 645.6 1308.5 648.1 1307.3 651.8 1300.9 679.7Z" fill="rgba(255, 255, 255, 0.4)"></path><path d="M962.4 680.2L957.1 697.8 948.3 689.1C947.5 688.1 945.6 688 944.1 689 943.2 690.4 943.1 692.3 943.9 693.3L955.3 704.9 950.4 721.2 927.4 697.4C925.9 696 924 695.9 923.2 697.3 921.6 698.3 921.5 700.1 923 701.5L948.4 727.8 944.3 742.7 909.6 751.4 900 741.8 911.1 704.6C911 704 910.8 703.4 910.7 702.9 910.5 702.3 909.7 701.3 909 700.9 907 700.2 905.4 701.2 905.3 703L895.1 737 883.6 724.8 888.3 707.3C888.8 707.2 888.7 706.6 888.5 706 888.2 704.9 887.4 703.9 886.1 703.6 884.8 703.3 883.3 704.3 882.4 705.7L878.8 720 864.1 704.9C863.2 703.9 861.4 703.8 859.8 704.8 859 706.2 858.8 708.1 859.7 709.1L873.5 723.1 861.6 726.1C859.9 726.5 859.2 728.5 859.5 729.7 859.9 731.4 861.4 732.8 863.2 732.3L878.5 728.5 890 740.7 858.2 748.7C856.5 749.1 855.7 750.5 856.1 752.2 856.5 754 857.9 754.8 859.6 754.4L894.9 745.5 905.2 755.6 895.2 790.1 882.2 793.4 856.1 766.7C855.1 765.2 852.7 765.2 851.8 766.6 850.3 767.6 850.7 769.3 851.7 770.9L875.3 795.1 858.9 799.3 847.3 787.1C846.5 786.1 844.1 786.1 843.1 786.9S842.1 790.2 843.1 791.8L852.1 801 832.2 806C830.5 806.4 829.8 808.4 830.2 810.1 830.5 811.3 832 812.7 833.7 812.2L853.6 807.2 850.2 820.2C850 821.4 850.4 823.2 852.4 823.9 853.7 824.1 855.8 823 856.1 821.7L860.4 805.5 876.9 801.4 867.6 833.9C867.5 835.8 867.9 837.5 869.9 838.2 871.2 838.5 873.3 837.3 873.6 836L883.7 799.7 896.8 796.4 922 822 917.6 835.8 882.4 844.7C880.7 845.1 879.8 846.5 880.3 848.2 880.7 849.9 882.3 851.4 884 850.9L915.8 842.9 911.4 859.1 896.1 863C894.4 863.4 893.5 864.8 893.9 866.5 894.4 868.3 895.8 869.1 897.5 868.7L909.4 865.7 903.9 884.6C903.6 885.9 904.8 888 906.1 888.3 907.9 888.4 909.6 888 909.7 886.1L915.7 866.5 925.5 876.7C926.9 877.6 928.8 877.7 929.8 876.9 930.8 876 931 874.7 930.7 873.6 930.7 873.6 930.6 873 929.9 872.6L917.5 859.4 921.9 843.2 946.9 868.3C947.9 869.9 949.8 870 951.2 868.4 951.6 867.7 952 867 951.8 865.9 951.6 865.3 951.5 864.7 951.3 864.2L923.9 836.7 927.8 823.6 962.5 814.9 973.1 826.1 963.3 861.2C962.6 863.2 963.6 864.7 965.4 864.9 966.8 865.7 968.4 864.7 969.1 862.7L978 830.9 990.1 842.9 985.6 858.6C985.3 859.8 986.3 861.4 987.7 862.3 989.5 862.4 991.2 862 991.4 860.1L995.1 848.3 1008 861.4C1009 862.9 1010.7 862.5 1012.3 861.5 1012.7 860.8 1013 859.5 1012.7 858.4 1012.7 858.4 1012.6 857.8 1012.4 857.2L998.6 843.2 1012.8 839.6C1013.9 839.3 1015.4 837.8 1014.9 836.1 1014.5 834.4 1012.5 833.7 1011.4 833.9L993.8 838.4 981.7 826.3 1016.3 817.6C1018 817.2 1018.7 815.2 1018.3 813.5S1016.4 810.9 1014.7 811.3L976.7 820.9 966.9 810.7 976.9 776.2 991.7 772.5 1017.8 799.7C1019.3 800.5 1021.1 800.7 1022.7 799.7 1023.1 799 1023.4 797.7 1023.1 796.6 1023 796 1022.8 795.4 1022.1 795L998.5 770.7 1014.9 766.6 1027 778.6C1027.9 779.6 1029.7 779.8 1031.3 778.8 1032.2 777.4 1032.3 775.5 1031.4 774.5L1021.8 764.9 1039.9 760.3C1041.1 760 1042.3 757.9 1042.1 756.7 1041.6 755 1039.5 753.8 1038.4 754L1020.2 758.6 1024.3 746.1C1024.1 745.6 1024 745 1023.9 744.4 1023.6 743.3 1022.7 742.3 1022 741.9 1020.2 741.7 1018.6 742.7 1017.7 744.1L1013.4 760.3 996.9 764.5 1006.2 731.9C1006.9 730 1005.9 728.4 1004.6 728.1 1002.7 727.4 1001.1 728.4 1000.2 729.8L990.1 766.2 975.3 769.9 950.1 744.3 953.9 730.6 992 721C993.7 720.6 994.5 719.2 994.1 717.5 993.7 715.8 992.3 714.9 990.6 715.3L955.9 724.1 960.9 707.7 978.5 703.3C979.6 703 980.9 700.9 980.4 699.2 980 697.5 978 696.8 976.9 697L962.7 700.6 968.2 681.7C968 681.2 968 681.2 967.9 680.6 967.6 679.4 966.8 678.5 966.1 678 964.2 677.9 962.6 678.9 962.4 680.2ZM968.5 771.7L971.1 774.6 970.1 777.9 962 805.9 961 809.2 957.6 810 929.8 817 926.4 817.9 924 815.5 903.6 794.6 901.2 792.2 902 788.4 910.2 761 911.1 757.1 914.5 756.3 942.3 749.3 945.7 748.4 948.3 751.4 968.5 771.7Z" fill="rgba(255, 255, 255, 0.4)"></path><path d="M803.1 539.5L814.1 511.3 821.7 507.8 836.8 518.8 836 527.3 812.3 546.2C812 546.5 812 546.5 811.8 546.8 811.4 547.4 811.3 548.2 811.9 549.2 812.8 549.8 813.6 549.9 814.6 549.3L835.3 532.7 833.9 545.7 824.9 553.2C824.9 553.2 824.7 553.5 824.7 553.5 824.2 554 824.1 554.9 824.8 555.8 825.1 556.5 826.5 556.6 827.4 555.9L833.5 551.3 832.4 560.9C832.2 561.7 832.9 562.6 834 563S836 562.2 836.3 561.1L837.2 551.7 842.1 557.5C842.7 558.5 844.1 558.5 845 557.9 845.4 557.3 845.8 556.2 845.1 555.2L837.7 546.2 839.3 532.8 855.9 553.5C856.5 554.5 857.9 554.5 858.6 554.2 859.2 553.3 859.6 552.2 858.9 551.2L839.8 527.8 840.8 519 857.4 511.6 864.5 516.8 869.5 546.7C869.6 547.7 870.5 548.4 871.5 548.2S873.2 547.2 873 546.1L868.7 519.8 879.6 527.8 881.4 539.1C881.5 540.1 882.4 540.7 883.7 540.8S885.4 539.7 885.2 538.7L883.7 530.8 891.7 536.7C892.6 537.3 893.9 536.9 894.5 536 895.2 535.1 895 534.1 894.1 533.4L886.1 527.6 893.8 526.4C895.1 526.4 895.8 525.5 895.3 524.3 895.1 523.3 894.3 522.6 893.2 522.8L882 524.6 871 516.6 897.4 512.7C898.4 512.6 899.3 511.4 899.1 510.3S898.1 508.7 897.1 508.8L866.9 513.6 859.8 508.4 861.9 490 869.8 486.6 897.9 497.7C899.1 498 900 497.4 900.6 496.5 901 495.4 900.3 494.4 899.4 493.8L874.6 484.3 886.6 479 897.5 483.3C898.6 483.7 899.6 483 900.2 482.1 900.4 481.3 899.9 480.1 898.8 479.7L891.8 476.9 900.6 472.9C901.3 472.5 901.7 471.4 901.5 470.4 900.9 469.5 899.8 469.1 899 469.5L890.2 473.5 893 466C893.1 465.2 892.7 463.9 891.9 463.8 891 463.1 890.2 463.5 889.6 464.4 889.6 464.4 889.4 464.7 889.4 464.7L885.1 475.6 873 480.9 882.5 456.1C882.9 455 882.7 454 881.6 453.6 880.5 453.3 879.8 453.6 879.4 454.2 879.1 454.5 879.1 454.5 879.1 454.5L868.2 483.2 860.3 486.6 845.2 475.6 846.3 467.3 870 447.8C870.7 447.5 870.7 446.1 870.4 445.4 869.7 444.5 868.4 444.4 867.4 445.1L846.7 461.7 848.1 448.6 857.1 441.2C858.1 440.5 858.4 439.4 857.5 438.8 856.9 437.8 855.6 437.8 854.8 438.1L848.8 443.3 849.9 433.7C849.8 432.7 849.1 431.7 848 431.4 847.5 431.4 846.8 431.8 846.3 432.4 846.1 432.7 846.1 432.7 846.2 433.2L845.1 442.8 839.9 436.8C839.3 435.9 838.2 436 837.5 436.4 837.3 436.7 837.3 436.7 837.1 437 836.7 437.6 836.5 438.4 836.9 439.1L844.3 448.2 843 461.2 826.4 440.5C825.5 439.9 824.4 439.5 823.7 440.4 823.2 440.5 823.2 440.5 823 440.8 822.6 441.4 822.7 442.4 823.1 443.1L842.5 466.8 841.5 475.1 824.6 482.7 817.8 477.8 813.1 447.6C812.9 446.5 811.7 445.7 810.7 445.8S808.8 447.2 809 448.2L813.4 474.5 802.7 466.8 800.6 455.3C800.5 454.3 799.6 453.6 798.6 453.8 797.6 453.9 796.9 454.8 797.1 455.8L798.3 463.5 790.3 457.7C789.7 457.3 788.4 457.2 787.7 458.1 787.1 459 787.3 460.5 787.9 460.9L795.9 466.8 788.2 468C787.7 468.1 787.2 468.1 787 468.4 786.5 469 786.6 469.5 786.7 470 786.9 471.1 787.8 471.7 788.8 471.6L800.3 470 811 477.8 784.6 481.6C784.1 481.7 783.9 482 783.4 482.6 783.2 482.9 783 483.2 783.1 483.7 783.2 484.7 784.4 485.6 785.5 485.4L815.4 481 822.2 486 820.3 504.1 812.6 507.9 784.1 496.7C783.3 496.5 782.2 496.7 781.8 497.3 781.6 497.6 781.6 497.6 781.9 497.8 781.2 498.7 781.7 499.9 782.8 500.3L807.6 509.7 795.4 515.3 784.5 511C783.7 510.9 782.9 511.2 782.5 511.8 782.5 511.8 782.3 512.1 782.3 512.1 781.6 513 782.1 514.3 783.2 514.6L790.7 517.4 781.9 521.4C781.4 521.4 781.2 521.7 781 522 780.5 522.6 780.4 523.4 780.7 523.7 781.1 524.9 782.3 525.2 783.3 525.1L792.1 521.1 789.2 528.1C788.9 529.2 789.4 530.4 790.5 530.8 791.3 530.9 792.5 530.5 792.6 529.6L797 518.7 809 513.5 799.5 538.3C799.1 539.4 799.8 540.3 800.7 541 801.5 541.1 802.7 540.6 803.1 539.5ZM837.4 514.2L825.9 505.8 824.1 504.5 824.3 502.4 825.8 488.6 826.2 486.1 828.1 485.3 840.9 479.6 842.8 478.8 844.6 480.1 856.2 488.5 857.9 489.8 857.7 491.9 856.2 505.8 856.1 507.9 853.9 509 841.1 514.7 839.2 515.5 837.4 514.2Z" fill="rgba(255, 255, 255, 0.4)"></path><path d="M810.8 135.8L814.1 184.3 785.4 216.7 771.6 175.7 793.6 132.3C793.6 132.3 793.7 131.7 793.7 131.7 793.9 130.6 793 129.2 792 128.4 790.3 127.5 788.4 128.3 788 130L769 168 762.3 148.1 770.5 131.2C770.5 131.2 770.6 130.6 770.6 130.6 770.8 129.5 769.9 128.1 768.9 127.3 767.3 126.4 765.3 127.2 765 128.9L759.1 140.3 754.3 125.5C753.9 124.3 751.8 123.2 750.5 123.6 748.7 123.8 748.2 126.1 748.5 127.4L753.3 142.1 742 136.2C740.4 135.3 738.4 136.1 738.1 137.8 737.1 139.4 737.9 141.4 739.6 141.7L756.5 149.9 762.7 169.7 724.7 150.6C723.1 149.7 721.1 150.5 720.8 152.2 719.9 153.8 720.7 155.8 722.4 156.1L765.8 178.1 779.6 219.1 736.5 210.4 709.5 169.7C708.6 168.3 706.8 167.9 705.5 168.8 704.1 169.8 703.7 171.5 704.6 172.9L728.5 208.8 707.8 204.6 697.7 189.4C696.8 188 695.1 187.7 693.7 188.6 692.3 189.5 692 191.2 692.9 192.6L699.8 202.9 683.7 199.7C682.1 198.8 680.6 200.3 680.2 202 679.9 203.7 680.8 205.1 682.5 205.4L697.4 208.5 687.1 215.3C685.7 216.2 685.4 218 686.3 219.3S688.9 221.1 690.3 220.2L705.5 210.1 726.1 214.3 690.2 238.1C688.9 239 688.5 240.7 689.4 242.1 690.3 243.5 692.1 243.8 693.4 242.9L734.2 215.9 776.7 224.5 748 256.9 700.8 259.9C698.9 260.2 698 261.8 697.6 263.5 697.9 265.3 699.5 266.2 701.2 266.6L743.6 263.8 729.7 279.5 710.9 280.5C709.1 280.7 708.2 282.4 707.8 284.1 708 285.9 709.7 286.8 710.8 287.1L723.6 286.1 713.4 297.8C712.6 298.8 712.1 301.1 713.8 302 715.4 302.9 717.1 303.3 718 301.7L728.1 290 729.1 302.7C729.4 304.6 731 305.5 732.1 305.7 733.4 305.4 734.8 304.5 735 303.3 735 303.3 735.1 302.8 735.1 302.8L734.1 284 748.1 268.3 750.8 310.7C751.1 312.6 752.7 313.5 753.8 313.7 755.1 313.4 756.5 312.5 756.7 311.3 756.7 311.3 756.8 310.7 756.8 310.7L753.5 262.2 782.2 229.8 796 270.8 774 314.2C773.1 315.8 773.9 317.8 775.6 318.1 777.2 319.1 779.2 318.3 779.5 316.5L798.6 278.6 805.3 298.4 797.1 315.3C796.2 316.9 797 318.9 798.7 319.2 800.3 320.1 802.3 319.3 802.6 317.6L808.5 306.3 813.3 321C813.7 322.2 815.8 323.3 817.1 322.9 818.4 322.6 819.2 321.6 819.4 320.4 819.5 319.8 819.6 319.3 819.2 318.6L814.4 303.9 825.7 309.8C827.3 310.7 829.3 309.9 829.7 308.2 829.7 308.2 829.8 307.6 829.8 307.6 830 306.4 829.1 305.1 828.1 304.2L811.2 296 804.5 276.2 842.4 295.2C844 296.1 846 295.3 846.3 293.6 846.3 293.6 846.5 293 846.5 293 846.7 291.9 845.8 290.5 844.7 289.7L801.4 267.8 787.6 226.7 830.1 235.3 857.1 276.1C858 277.4 859.7 277.8 861.1 276.9 862.5 276 862.8 274.2 861.9 272.8L838.7 237.1 859.3 241.3 869.4 256.4C870.3 257.8 872.1 258.2 873.4 257.3S875.2 254.6 874.2 253.2L867.4 242.9 882.3 245.9C884 246.3 885.4 245.3 885.8 243.6 886.1 241.9 885.2 240.5 883.5 240.2L868.5 237.1 878.9 230.3C879.6 229.8 880.3 229.4 880.5 228.2S880.3 226.4 879.8 225.7C878.9 224.3 877.2 223.9 875.8 224.9L860.6 234.9 840 230.7 875.9 206.9C876.5 206.5 877.2 206 877.5 204.9 877.6 204.3 877.2 203 876.8 202.3 875.9 201 874.1 200.6 872.8 201.5L832 228.5 789.5 219.9 818.2 187.5 866.7 184.2C868 183.8 869.4 182.9 869.6 181.8 869.6 181.8 869.7 181.2 869.7 181.2 869.5 179.4 867.9 178.4 866.7 178.2L824.3 181 838.3 165.3 857 164.3C858.3 163.9 859.6 163 859.9 161.9 859.9 161.9 860 161.3 860 161.3 859.8 159.5 858.2 158.5 857 158.3L844.3 159.3 854.4 147.6C854.5 147 855.2 146.6 855.3 146 855.6 144.9 855.2 143.6 854.2 142.8 852.6 141.9 850.9 141.5 849.9 143.1L839.8 154.8 838.8 142.1C838.6 140.2 837 139.3 835.8 139.1 834 139.3 833 140.9 832.8 142L833.8 160.8 819.9 176.5 817.1 134.1C816.9 132.2 815.3 131.3 814.1 131.1 812 132.5 810.5 133.9 810.8 135.8Z" fill="rgba(255, 255, 255, 0.4)"></path><path d="M427.9 879.9L412.9 860.7 415.8 839.3 433 852.4 436 876.5C436 876.5 436.1 876.8 436.1 876.8 436.3 877.4 437.1 877.7 437.7 877.7 438.7 877.7 439.3 876.8 438.9 876L436.2 854.9 444.6 861.3 445.9 870.5C445.9 870.5 446 870.8 446 870.8 446.2 871.4 447 871.7 447.6 871.7 448.5 871.7 449.1 870.8 448.8 870L448.1 863.6 454.2 868.4C454.7 868.8 455.9 868.6 456.3 868.1 457 867.5 456.5 866.4 456 866L449.9 861.2 456.3 860.5C457.2 860.4 457.8 859.6 457.5 858.8 457.4 857.8 456.5 857.2 455.7 857.6L446.4 858.9 438.3 852.4 459.4 849.7C460.3 849.6 460.9 848.8 460.6 848 460.5 847 459.6 846.4 458.8 846.8L434.7 849.8 417.5 836.6 437.8 828.2 460.4 837.6C461.2 837.9 462 837.5 462.3 836.8 462.6 836 462.3 835.2 461.5 834.9L441.6 826.7 451.4 822.6 459.8 826.1C460.5 826.4 461.3 826.1 461.7 825.3 462 824.5 461.6 823.7 460.9 823.4L455.1 821 462.7 817.9C463.6 817.8 463.8 816.8 463.5 816 463.2 815.2 462.4 814.9 461.6 815.2L454.6 818.1 456.9 812.4C457.2 811.6 456.9 810.8 456.1 810.5S454.6 810.5 454.3 811.3L450.8 819.7 441 823.7 449.3 803.8C449.6 803.1 449.2 802.2 448.5 801.9 447.7 801.6 446.9 801.9 446.6 802.7L437.2 825.3 417.2 833.6 420.1 812.1 438.8 797.7C439.5 797.1 439.4 796.2 439.1 795.4 438.5 794.7 437.6 794.7 436.7 795.1L419.9 808.1 421.3 797.6 428.8 792C429.5 791.4 429.5 790.5 429.1 789.7 428.5 789 427.6 789 427 789.3L422 793.2 423 785.6C423 784.9 422.6 783.8 421.6 783.9 420.7 783.9 419.9 784.3 420 785.2L419 792.9 415.1 787.9C414.5 787.2 413.5 787.2 413 787.5 412.6 788 412.2 788.7 412.5 789.3 412.5 789.3 412.6 789.5 412.6 789.5L418.2 797 416.8 807.4 403.8 790.6C403.2 789.9 402.3 790 401.8 790.2 401.3 790.7 401 791.5 401.2 792 401.2 792 401.4 792.3 401.4 792.3L416.3 811.5 413.5 832.9 396.3 819.8 393.2 795.7C393.2 794.7 392.3 794.2 391.5 794.5 390.6 794.6 390 795.4 390.3 796.2L393 817.3 384.7 810.9 383.4 801.7C383.3 800.7 382.4 800.2 381.6 800.5 380.7 800.6 380.1 801.4 380.4 802.2L381.2 808.6 375.1 803.8C374.6 803.4 373.4 803.6 373 804.1 372.5 804.6 372.5 805.2 372.7 805.8 372.8 806 372.9 806.3 373.3 806.5L379.4 811.2 373.1 812C372.1 812 371.5 812.9 371.9 813.7 371.9 813.7 372 814 372 814 372.2 814.5 373 814.9 373.6 814.9L382.9 813.6 391.3 819.9 370.2 822.7C369.3 822.7 368.7 823.6 369 824.4 369 824.4 369.1 824.7 369.1 824.7 369.4 825.2 370.1 825.5 370.8 825.6L394.9 822.6 412.1 835.7 392.1 844 369.5 834.7C368.7 834.4 367.9 834.7 367.6 835.5 367.3 836.2 367.6 837.1 368.4 837.4L388 845.7 378.3 849.8 369.8 846.3C369.1 846 368.3 846.3 368 847.1S368 848.6 368.7 849L374.5 851.3 367.4 854.2C366.6 854.6 366.3 855.3 366.7 856.2 367 857 367.8 857.3 368.6 857L375.6 854 373.2 859.8C373.1 860.2 372.9 860.5 373.1 861.1S373.7 861.8 374.1 861.9C374.9 862.3 375.7 861.9 376 861.2L379.5 852.7 389.2 848.7 381 868.6C380.8 869 380.7 869.4 380.9 869.9 381 870.2 381.5 870.6 381.9 870.8 382.7 871.1 383.5 870.7 383.8 870L393.1 847.4 413.2 839.1 410.3 860.6 391.2 875.5C390.7 876 390.4 876.7 390.6 877.3 390.6 877.3 390.7 877.6 390.7 877.6 391.4 878.3 392.3 878.2 392.8 878L409.6 865 408.2 875.4 400.7 881C400.3 881.5 400 882.3 400.2 882.8 400.2 882.8 400.3 883.1 400.3 883.1 400.9 883.8 401.9 883.7 402.4 883.5L407.4 879.5 406.5 887.2C406.6 887.5 406.4 887.9 406.5 888.1 406.8 888.7 407.3 889.1 407.9 889.1 408.8 889.1 409.7 888.7 409.6 887.8L410.5 880.1 414.5 885.1C415.1 885.8 416 885.8 416.6 885.6 417.3 884.9 417.2 884 417 883.5L411.3 876 412.7 865.6 425.7 882.4C426.3 883.1 427.3 883 427.8 882.8 428.3 881.6 428.5 880.6 427.9 879.9Z" fill="rgba(255, 255, 255, 0.4)"></path></g><defs><mask id="SvgjsMask1656"><rect width="1318" height="877.3" fill="#ffffff"></rect></mask><linearGradient x1="8.36%" y1="112.56%" x2="91.64%" y2="-12.56%" gradientUnits="userSpaceOnUse" id="SvgjsLinearGradient1657"><stop stop-color="rgba(197, 161, 17, 0.4)" offset="0"></stop><stop stop-color="rgba(197, 161, 17, 0.88)" offset="1"></stop></linearGradient><filter id="SvgjsFilter1658"><feGaussianBlur stdDeviation="1"></feGaussianBlur></filter></defs></svg>